<svg viewBox="0 0 256 256" xmlns="http://www.w3.org/2000/svg"><defs><linearGradient id="y" x1="77.249" x2="148.47" y1="196.88" y2="196.88" gradientTransform="translate(1.286 795.08)" gradientUnits="userSpaceOnUse"><stop stop-color="#fff" offset=".006"/><stop stop-color="#fcfbfa" offset=".021"/><stop stop-color="#d7c7ba" offset=".224"/><stop stop-color="#b99c85" offset=".418"/><stop stop-color="#a17b5c" offset=".598"/><stop stop-color="#90633e" offset=".76"/><stop stop-color="#86542c" offset=".9"/><stop stop-color="#824f26" offset="1"/></linearGradient><linearGradient id="f" x1="128.87" x2="128.87" y1="179.43" y2="164.62" gradientTransform="translate(1.286 795.08)" gradientUnits="userSpaceOnUse"><stop stop-color="#824f26" offset=".006"/><stop stop-color="#5f3a1c" offset=".19"/><stop stop-color="#362110" offset=".439"/><stop stop-color="#180f07" offset=".666"/><stop stop-color="#060402" offset=".86"/><stop offset="1"/></linearGradient><linearGradient id="e" x1="89.883" x2="167.86" y1="178.06" y2="178.06" gradientTransform="translate(1.286 795.08)" gradientUnits="userSpaceOnUse"><stop stop-color="#fff" offset=".006"/><stop stop-color="#fcfbfa" offset=".021"/><stop stop-color="#d7c7ba" offset=".224"/><stop stop-color="#b99c85" offset=".418"/><stop stop-color="#a17b5c" offset=".598"/><stop stop-color="#90633e" offset=".76"/><stop stop-color="#86542c" offset=".9"/><stop stop-color="#824f26" offset="1"/></linearGradient><linearGradient id="d" x1="72.252" x2="186.04" y1="186.29" y2="186.29" gradientTransform="translate(1.286 795.08)" gradientUnits="userSpaceOnUse"><stop stop-color="#c77700" offset=".006"/><stop stop-color="#cb7d07" offset=".023"/><stop stop-color="#e19f30" offset=".132"/><stop stop-color="#f2b84e" offset=".23"/><stop stop-color="#fbc760" offset=".315"/><stop stop-color="#fc6" offset=".376"/><stop stop-color="#f5c25c" offset=".482"/><stop stop-color="#dca943" offset=".657"/><stop stop-color="#b27f19" offset=".88"/><stop stop-color="#960" offset="1"/></linearGradient><linearGradient id="x" x1="130.97" x2="70.983" y1="119.07" y2="119.07" gradientTransform="translate(1.286 -1.286)" gradientUnits="userSpaceOnUse"><stop stop-color="#f0f0f0" offset=".006"/><stop stop-color="#eeedec" offset=".143"/><stop stop-color="#e9e6df" offset=".288"/><stop stop-color="#e1d9ca" offset=".438"/><stop stop-color="#d5c7ac" offset=".591"/><stop stop-color="#c6b186" offset=".745"/><stop stop-color="#b39557" offset=".899"/><stop stop-color="#a8843b" offset=".983"/></linearGradient><linearGradient id="w" x1="96.525" x2="119.12" y1="128.79" y2="128.79" gradientTransform="translate(1.286 -1.286)" gradientUnits="userSpaceOnUse"><stop stop-color="#fff" offset=".006"/><stop stop-color="#a8843b" offset="1"/></linearGradient><linearGradient id="v" x1="118.2" x2="159.42" y1="61.256" y2="61.256" gradientTransform="translate(1.286 795.08)" gradientUnits="userSpaceOnUse"><stop stop-color="#d6c5a0" offset=".006"/><stop stop-color="#d4c29c" offset=".192"/><stop stop-color="#ceba8f" offset=".39"/><stop stop-color="#c5ac7a" offset=".593"/><stop stop-color="#b7995c" offset=".798"/><stop stop-color="#a8843b" offset=".983"/></linearGradient><linearGradient id="u" x1="117.33" x2="145.43" y1="39.822" y2="39.822" gradientTransform="translate(1.286 795.08)" gradientUnits="userSpaceOnUse"><stop stop-color="#fff" offset=".006"/><stop stop-color="#a8843b" offset="1"/></linearGradient><linearGradient id="t" x1="131.38" x2="131.38" y1="42.276" y2="27.985" gradientTransform="translate(1.286 795.08)" gradientUnits="userSpaceOnUse"><stop stop-color="#fff" offset=".006"/><stop stop-color="#a8843b" offset="1"/></linearGradient><linearGradient id="s" x1="92.714" x2="101.93" y1="46.787" y2="46.787" gradientTransform="translate(1.286 795.08)" gradientUnits="userSpaceOnUse"><stop stop-color="#fff" offset=".006"/><stop stop-color="#a8843b" offset="1"/></linearGradient><linearGradient id="r" x1="70.991" x2="94.021" y1="47.085" y2="47.085" gradientTransform="translate(1.286 795.08)" gradientUnits="userSpaceOnUse"><stop stop-color="#fff" offset=".006"/><stop stop-color="#a8843b" offset="1"/></linearGradient><linearGradient id="q" x1="70.952" x2="94.021" y1="48.144" y2="48.144" gradientTransform="translate(1.286 -1.286)" gradientUnits="userSpaceOnUse"><stop stop-color="#fff" offset=".006"/><stop stop-color="#fbfbfc" offset=".283"/><stop stop-color="#eeeef2" offset=".577"/><stop stop-color="#d9d9e3" offset=".878"/><stop stop-color="#cecedb" offset="1"/></linearGradient><linearGradient id="p" x1="80.734" x2="90.851" y1="34.067" y2="34.067" gradientTransform="translate(1.286 -1.286)" gradientUnits="userSpaceOnUse"><stop stop-color="#fff" offset=".006"/><stop stop-color="#fcfcfb" offset=".16"/><stop stop-color="#f5f4ee" offset=".324"/><stop stop-color="#e8e5d9" offset=".493"/><stop stop-color="#d6d2bb" offset=".665"/><stop stop-color="#bfb895" offset=".837"/><stop stop-color="#a89f6f" offset=".983"/></linearGradient><linearGradient id="o" x1="83.377" x2="68.973" y1="43.836" y2="43.836" gradientTransform="translate(1.286 795.08)" gradientUnits="userSpaceOnUse"><stop stop-color="#f0f0f0" offset=".006"/><stop stop-color="#eeedec" offset=".143"/><stop stop-color="#e9e6df" offset=".288"/><stop stop-color="#e1d9ca" offset=".438"/><stop stop-color="#d5c7ac" offset=".591"/><stop stop-color="#c6b186" offset=".745"/><stop stop-color="#b39557" offset=".899"/><stop stop-color="#a8843b" offset=".983"/></linearGradient><linearGradient id="n" x1="70.28" x2="78.774" y1="57.082" y2="57.082" gradientTransform="translate(1.286 -1.286)" gradientUnits="userSpaceOnUse"><stop stop-color="#fff" offset=".006"/><stop stop-color="#e2e2e2" offset=".562"/><stop stop-color="#cbc7b1" offset="1"/></linearGradient><linearGradient id="m" x1="71.111" x2="71.369" y1="49.035" y2="49.035" gradientTransform="translate(1.286 795.08)" gradientUnits="userSpaceOnUse"><stop stop-color="#fff" offset=".006"/><stop stop-color="#e2e2e2" offset=".562"/><stop stop-color="#cbc7b1" offset="1"/></linearGradient><linearGradient id="l" x1="152.83" x2="177.42" y1="26.689" y2="26.689" gradientTransform="translate(1.286 795.08)" gradientUnits="userSpaceOnUse"><stop stop-color="#e6e6e6" offset=".006"/><stop stop-color="#e4e3e2" offset=".177"/><stop stop-color="#dddcd5" offset=".358"/><stop stop-color="#d2cfc0" offset=".544"/><stop stop-color="#c3bda2" offset=".734"/><stop stop-color="#afa77c" offset=".925"/><stop stop-color="#a89f6f" offset=".983"/></linearGradient><linearGradient id="k" x1="163.29" x2="181.68" y1="140.44" y2="140.44" gradientTransform="translate(1.286 795.08)" gradientUnits="userSpaceOnUse"><stop stop-color="#fff" offset=".006"/><stop stop-color="#e2e2e2" offset=".562"/><stop stop-color="#cbc7b1" offset="1"/></linearGradient><linearGradient id="j" x1="176.79" x2="183.42" y1="45.229" y2="45.229" gradientTransform="translate(1.286 795.08)" gradientUnits="userSpaceOnUse"><stop stop-color="#fff" offset=".006"/><stop stop-color="#e2e2e2" offset=".562"/><stop stop-color="#cbc7b1" offset="1"/></linearGradient><linearGradient id="i" x1="183.42" x2="161.51" y1="96.121" y2="96.121" gradientTransform="translate(1.286 795.08)" gradientUnits="userSpaceOnUse"><stop stop-color="#fff" offset=".006"/><stop stop-color="#fcfcfb" offset=".16"/><stop stop-color="#f5f4ee" offset=".324"/><stop stop-color="#e8e5d9" offset=".493"/><stop stop-color="#d6d2bb" offset=".665"/><stop stop-color="#bfb895" offset=".837"/><stop stop-color="#a89f6f" offset=".983"/></linearGradient><linearGradient id="h" x1="68.973" x2="183.42" y1="95.163" y2="95.163" gradientTransform="translate(1.286 -1.286)" gradientUnits="userSpaceOnUse"><stop stop-color="#fff" offset=".006"/><stop stop-color="#e2e2e2" offset=".416"/><stop stop-color="#cbc7b1" offset="1"/></linearGradient><linearGradient id="g" x1="68.968" x2="183.42" y1="95.164" y2="95.164" gradientTransform="translate(1.286 795.08)" gradientUnits="userSpaceOnUse"><stop stop-color="#695600" offset=".006"/><stop stop-color="#7d7a6d" offset="1"/></linearGradient><linearGradient id="c" x1="71.587" x2="187.03" y1="229.5" y2="229.5" gradientTransform="translate(1.286 795.08)" gradientUnits="userSpaceOnUse"><stop stop-color="#033" offset=".006"/><stop stop-color="#003a33" offset=".023"/><stop stop-color="#006333" offset=".132"/><stop stop-color="#008133" offset=".23"/><stop stop-color="#009333" offset=".315"/><stop stop-color="#093" offset=".376"/><stop stop-color="#00902a" offset=".553"/><stop stop-color="#007910" offset=".847"/><stop stop-color="#006a00" offset="1"/></linearGradient><linearGradient id="b" x1="129.31" x2="129.31" y1="239.05" y2="164.62" gradientTransform="translate(1.286 795.08)" gradientUnits="userSpaceOnUse"><stop stop-color="#c76200" offset=".006"/><stop stop-color="#c77100" offset=".024"/><stop stop-color="#c77700" offset=".039"/><stop stop-color="#fc6" offset=".702"/><stop stop-color="#f5c25c" offset=".752"/><stop stop-color="#dca943" offset=".836"/><stop stop-color="#b27f19" offset=".943"/><stop stop-color="#960" offset="1"/></linearGradient><linearGradient id="a" x1="169.15" x2="90.1" y1="244.58" y2="165.53" gradientTransform="translate(1.286 795.08)" gradientUnits="userSpaceOnUse"><stop stop-color="#633" offset=".006"/><stop stop-color="#6f3e2b" offset=".474"/><stop stop-color="#744426" offset="1"/></linearGradient></defs><path d="m170.95 955.7-81.897 3.268a4 4 0 0 0-3.84 3.996v16.627c-14.663 10.135-15.69 14.684-15.69 16.5 0 .16.007.3.014.42.17 3.068 2.009 8.306 3.36 11.803l-1.838 1.085a4.002 4.002 0 0 0-1.964 3.356l-.218 9.889c0 .804.243 1.591.697 2.257 1.042 1.524 11.622 14.836 61.817 13.066 50.794-1.789 57.813-9.013 60.65-16.262.182-.464.275-.959.275-1.457v-9.148a4 4 0 0 0-1.056-2.709l-3.333-3.623 3.69-9.666a4.002 4.002 0 0 0-.88-4.228c-1.067-1.086-9.532-9.635-15.628-13.49v-17.687a3.998 3.998 0 0 0-4.159-3.998z" fill="url(#a)" transform="translate(0 -796.36)"/><path d="M89.209 962.96v18.732s-15.9 10.672-15.683 14.594c.218 3.92 4.356 13.721 4.356 13.721l-4.792 2.832-.217 9.8s8.93 13.069 58.374 11.327c49.44-1.742 55.105-8.713 57.066-13.721v-9.149l-5.01-5.445 4.574-11.979s-11.328-11.545-16.771-13.94v-20.038l-81.897 3.266z" fill="url(#b)" transform="translate(0 -796.36)"/><path d="M131.25 1028.7c-46.349 1.633-57.098-9.748-58.261-11.18l-.113 5.08s8.93 13.068 58.374 11.326c49.44-1.742 55.105-8.713 57.066-13.72v-5.23c-1.961 5.01-7.625 11.98-57.066 13.724z" fill="url(#c)" transform="translate(0 -796.36)"/><path d="m171.11 959.7-81.897 3.266v18.732s-15.424 10.355-15.671 14.41c11.814 4.193 31.401 6.935 53.569 6.935 27.079 0 50.308-4.09 60.222-9.918-2.324-2.32-11.492-11.307-16.223-13.389V959.7z" fill="url(#d)" transform="translate(0 -796.36)"/><path d="M91.169 964.85v15.48c9.917 2.703 22.69 4.2 36.266 4.2 16.23 0 31.607-2.22 41.711-5.934v-16.857c-3.785.152-74.475 2.97-77.977 3.11z" fill="url(#e)" transform="translate(0 -796.36)"/><path d="M89.209 970.46c9.821 2.516 22.699 4.045 36.81 4.045 18.535 0 34.949-2.635 45.088-6.684v-8.127L89.21 962.96v7.5z" fill="url(#f)" transform="translate(0 -796.36)"/><path d="m145.3 809.88.39-.49c-1.64 1.39-11.65 5.66-20.38 8.99-3.71-.43-10.11-.42-19.13.05-14.666.76-14.913.95-15.953 1.77-.019.01-.031.04-.05.05-1.443.37-5.861.56-9.971.41a3.998 3.998 0 0 0-4.138 3.75c-.09 1.43-3.253 5.21-4.719 5.91-4.187 1.68-4.978 6.74-5.055 7.31a4.021 4.021 0 0 0 1.431 3.63s.367.3.578.47c-.013.22-.056.44-.056.66 0 2.12.644 3.97 1.444 5.36-1.017 1.6-1.653 3.63-2.041 5.49-.03.15-.045.3-.045.45 0 .91.518 1.85 1.02 2.61.843.84 1.089 1.07 1.698 1.51 1.45.78 6.941 6.17 11.159 10.73.757.82 1.82 1.28 2.935 1.28h3.048c1.109 0 2.167-.46 2.924-1.27 3.458-3.7 8.543-7.95 13.121-7.17 2.98.51 5.16 2.98 6.43 4.87-22.906 23.13-36.539 43.91-40.475 61.79-.843 3.83-1.208 7.34-1.208 10.54 0 10.28 3.752 17.37 7.404 21.85 2.293 2.81 4.121 4.36 5.586 5.21 2.425 2.06 12.644 7.37 53.113 6.77 35.88-.53 45.37-8.67 47.79-13.72 2.05-.89 3.47-2.13 4.23-3.73a5.8 5.8 0 0 0 .59-2.52c0-1.09-.31-1.9-.45-2.23-.19-.4-.44-.78-.75-1.1-.21-.23-17.22-18.44-17.22-34.45 0-3.53.83-6.96 2.86-10.06.06-.09.11-.19.17-.29 13.3-24.7 17.23-42.68 17.23-55.3 0-10.58-2.76-17.38-5.06-21.22.63-.57 1.12-1.28 1.3-2.12a3.994 3.994 0 0 0-.62-3.06l-2.84-4.13a3.97 3.97 0 0 0-2.88-1.72l-6.81-.72c-8.01-7.9-22.58-8.02-23.23-8.02-1.2 0-2.61.92-3.37 1.86zm-55.92 11.27c-.168.25-.325.51-.432.79.118-.31.27-.57.432-.79zm-7.541 144.81c.441.21.838.34 1.206.43a4.037 4.037 0 0 1-1.206-.43zm3.153.36c-.184.06-.371.08-.56.11.197-.03.398-.05.56-.11zm-1.509.15c.143.02.281.04.411.04-.14.01-.271-.03-.411-.04z" fill="url(#g)" transform="translate(0 -796.36)"/><path d="M148.66 15.656c-1.53 2.396-22.85 10.469-22.85 10.469-7.62-1.307-33.122.875-33.122.875-.654 1.742-12.626 1.281-12.626 1.281-.217 3.486-5.009 8.504-7.187 9.375s-2.625 4.156-2.625 4.156l2.406 1.938c-1.306 3.484.875 6.312.875 6.312l6.531.657c-.435 1.089-5.656 1.75-5.656 1.75-1.743 0-2.844 5.219-2.844 5.219 1.96 0 12.844 11.781 12.844 11.781h3.063c18.511-19.821 27.441 1.093 27.441 1.093-71.881 71.228-31.16 95.598-31.16 95.598s6.533 6.56 50.53 5.9c44-.65 44.66-12.87 44.66-12.87 5.01-1.31 3.94-3.69 3.94-3.69s-27.89-29.4-14.82-49.44c30.28-56.193 10-75.591 10-75.591l3.06-1.969-2.84-4.125-8.25-.875c-6.53-7.841-21.37-7.844-21.37-7.844z" fill="url(#h)"/><path d="M182.87 951.86s-27.881-29.405-14.812-49.443c30.277-56.195 10.02-75.581 10.02-75.581l-4.574 2.179 1.525 3.92c8.059 35.72-8.058 49.226-11.762 75.58-3.703 26.355 15.682 47.048 15.682 47.048 5.01-1.309 3.922-3.703 3.922-3.703z" fill="url(#i)" transform="translate(0 -796.36)"/><path d="m180.05 829.48-1.977 1.272s6.094 5.834 6.6 20.374c.379-11.363-2.543-18.238-4.623-21.646z" fill="url(#j)" transform="translate(0 -796.36)"/><path d="M164.65 916.59c-1.184 15.701 12.77 32.982 17.016 37.847 1.82-1.227 1.207-2.578 1.207-2.578s-16.961-17.89-18.223-35.27z" fill="url(#k)" transform="translate(0 -796.36)"/><path d="m160 823.78 18.713-2.441-.416-.609-8.277-.87-.106-.12-15.795 3.387 5.881.653z" fill="url(#l)" transform="translate(0 -796.36)"/><path d="M148.66 15.656c-1.53 2.396-22.85 10.469-22.85 10.469-7.62-1.307-33.122.875-33.122.875-.654 1.742-12.626 1.281-12.626 1.281-.217 3.486-5.009 8.504-7.187 9.375s-2.625 4.156-2.625 4.156l1.188.938c.364-.495.827-.912 1.437-1.156 2.178-.871 6.97-5.891 7.187-9.375 0 0 11.972.43 12.626-1.313 0 0 25.502-2.181 33.122-.875 0 0 21.32-8.041 22.85-10.437 0 0 14.84.002 21.37 7.844l8.25.843.97 1.438 1.87-1.219-2.84-4.125-8.25-.875c-6.53-7.841-21.37-7.844-21.37-7.844z" fill="#fff"/><path d="m72.655 844.04-.258-.21c.043.195.092.384.146.563.037-.119.067-.234.112-.353z" fill="url(#m)" transform="translate(0 -796.36)"/><path d="M73.156 53.406c-.998 1.5-1.594 4.282-1.594 4.282.243 0 .615.184 1.094.5.457-.987 1.063-1.782 1.75-1.782 0 0 5.221-.661 5.656-1.75L73.531 54s-.164-.214-.375-.594z" fill="url(#n)"/><path d="m73.526 846.44 3.452.346c-.615-.429-1.105-.686-1.4-.686 0 0 1.164-5.592 3.027-5.592 0 0 5.592-.699 6.058-1.863l-6.99-.7s-2.329-3.027-.931-6.755l-.175-.144c-1.333 1.46-2.757 2.604-3.694 2.979-2.178.871-2.615 4.139-2.615 4.139l2.397 1.96c-1.307 3.485.87 6.316.87 6.316z" fill="url(#o)" transform="translate(0 -796.36)"/><path d="M88.844 29.344c-2.289.105-4.219 4.625-4.219 4.625l-2.594 1.719s12.83 2.627 9.563-3.907c-.919-1.837-1.855-2.479-2.75-2.437z" fill="url(#p)"/><path d="M80.781 43a73.318 73.318 0 0 0-8.343.562l.218.188c-1.306 3.484.875 6.312.875 6.312l6.469.657c12.337-.103 15.312-3.25 15.312-3.25-2.074-3.688-8.731-4.513-14.531-4.469z" fill="url(#q)"/><path d="m72.432 839.94.223.183a6.44 6.44 0 0 0-.378 1.64c5.215-.58 17.262-1.356 21.142 3.206 1.401-.625 1.888-1.144 1.888-1.144-3.319-5.9-18.342-4.465-22.875-3.885z" fill="url(#r)" transform="translate(0 -796.36)"/><path d="M94 835.98s9.585 4.138 8.06 11.762c0 0 5.663-10.237-8.06-11.762z" fill="url(#s)" transform="translate(0 -796.36)"/><path d="m118.61 833.37 7.84-3.049s3.92 13.723 15.9 2.831l4.358 1.308s-6.316-20.04-18.515-6.97l-9.584 5.88z" fill="url(#t)" transform="translate(0 -796.36)"/><path d="M142.35 833.15c-11.199 10.183-15.355-1.147-15.849-2.665l-7.893 4.844 7.841-3.05s3.92 13.723 15.9 2.832l4.358 1.307s-.29-.912-.86-2.218l-3.498-1.05z" fill="url(#u)" transform="translate(0 -796.36)"/><path d="M138 37.23s3.703-7.623-6.316-6.534c0 0 11.762-4.356 6.316 6.534z" fill="#fff"/><path d="M158.33 838.06a2.616 2.616 0 0 0-1.777 2.978c1.685 8.884.324 15.565-4.045 19.857-9.924 9.752-32.27 5.242-32.494 5.195a2.615 2.615 0 0 0-1.282 5.063c19.184 5.716 32.45 4.553 39.428-3.459 9.168-10.523 3.412-28.065 3.34-28.226a2.614 2.614 0 0 0-3.17-1.409z" fill="url(#v)" transform="translate(0 -796.36)"/><path d="m97.812 101.38 22.528 52.28c1.31-29.41-22.528-52.28-22.528-52.28z" fill="url(#w)"/><path d="m118.44 67-3.53 3.562C43.029 141.79 83.75 166.16 83.75 166.16s6.34 6.33 48.5 5.9c-37.701-.39-43.625-6.31-43.625-6.31S46.425 140.46 118.44 67z" fill="url(#x)"/><path d="M89.426 984.75s-10.021 6.1-10.892 9.365c0 0 22.435 9.367 71.226 2.615l-60.334-11.98z" fill="url(#y)" transform="translate(0 -796.36)"/></svg>